{
	"asset":	{
		"version":	"2.0",
		"generator":	"exported by Modelo"
	},
	"scene":	0,
	"scenes":	[{
			"nodes":	[0]
		}],
	"materials":	[{
			"pbrMetallicRoughness":	{
				"baseColorFactor":	[0.588235318660736, 0.588235318660736, 0.588235318660736, 1],
				"metallicFactor":	0,
				"roughnessFactor":	1
			},
			"name":	"02 - Default",
			"doubleSided":	true
		}, {
			"pbrMetallicRoughness":	{
				"baseColorFactor":	[0.27058824896812439, 0.168627455830574, 0.14509804546833038, 1],
				"metallicFactor":	0,
				"roughnessFactor":	1
			},
			"name":	"08 - Default",
			"doubleSided":	true
		}, {
			"pbrMetallicRoughness":	{
				"baseColorFactor":	[1, 0.86274510622024536, 0.37647059559822083, 1],
				"metallicFactor":	0,
				"roughnessFactor":	1
			},
			"name":	"09 - Default",
			"doubleSided":	true
		}, {
			"pbrMetallicRoughness":	{
				"baseColorFactor":	[0.588235318660736, 0.588235318660736, 0.588235318660736, 0.14901961386203766],
				"metallicFactor":	0,
				"roughnessFactor":	1
			},
			"name":	"03 - Default",
			"doubleSided":	true,
			"alphaMode":	"BLEND"
		}, {
			"pbrMetallicRoughness":	{
				"baseColorFactor":	[0, 0, 0, 1],
				"metallicFactor":	0,
				"roughnessFactor":	1
			},
			"name":	"mxdefaultline",
			"doubleSided":	true
		}],
	"meshes":	[{
			"primitives":	[{
					"attributes":	{
						"POSITION":	1,
						"NORMAL":	2
					},
					"indices":	0,
					"material":	0
				}]
		}, {
			"primitives":	[{
					"attributes":	{
						"POSITION":	4,
						"NORMAL":	5
					},
					"indices":	3,
					"material":	2
				}]
		}, {
			"primitives":	[{
					"attributes":	{
						"POSITION":	7,
						"NORMAL":	8
					},
					"indices":	6,
					"material":	3
				}]
		}, {
			"primitives":	[{
					"attributes":	{
						"POSITION":	10,
						"NORMAL":	11
					},
					"indices":	9,
					"material":	1
				}]
		}, {
			"primitives":	[{
					"attributes":	{
						"POSITION":	13,
						"NORMAL":	14
					},
					"indices":	12,
					"material":	0
				}]
		}, {
			"primitives":	[{
					"attributes":	{
						"POSITION":	16,
						"NORMAL":	17
					},
					"indices":	15,
					"material":	0
				}]
		}, {
			"primitives":	[{
					"attributes":	{
						"POSITION":	19,
						"NORMAL":	20
					},
					"indices":	18,
					"material":	0
				}]
		}, {
			"primitives":	[{
					"attributes":	{
						"POSITION":	22,
						"NORMAL":	23
					},
					"indices":	21,
					"material":	0
				}]
		}, {
			"primitives":	[{
					"attributes":	{
						"POSITION":	25,
						"NORMAL":	26
					},
					"indices":	24,
					"material":	0
				}]
		}, {
			"primitives":	[{
					"attributes":	{
						"POSITION":	28,
						"NORMAL":	29
					},
					"indices":	27,
					"material":	0
				}]
		}],
	"accessors":	[{
			"bufferView":	0,
			"byteOffset":	0,
			"componentType":	5125,
			"count":	7800,
			"type":	"SCALAR",
			"name":	"accessorIndices_0",
			"max":	[7799],
			"min":	[0]
		}, {
			"bufferView":	1,
			"byteOffset":	0,
			"componentType":	5126,
			"count":	7800,
			"type":	"VEC3",
			"name":	"accessorPositions",
			"max":	[0.11772254109382629, 0.12604545056819916, 0.13080285489559174],
			"min":	[-0.11772254109382629, -0.12604545056819916, 0]
		}, {
			"bufferView":	2,
			"byteOffset":	0,
			"componentType":	5126,
			"count":	7800,
			"type":	"VEC3",
			"name":	"accessorNormals",
			"max":	[1, 1, 1],
			"min":	[-1, -1, -1]
		}, {
			"bufferView":	0,
			"byteOffset":	31200,
			"componentType":	5125,
			"count":	2880,
			"type":	"SCALAR",
			"name":	"accessorIndices_3",
			"max":	[2879],
			"min":	[0]
		}, {
			"bufferView":	1,
			"byteOffset":	93600,
			"componentType":	5126,
			"count":	2880,
			"type":	"VEC3",
			"name":	"accessorPositions",
			"max":	[0.0063368184491992, 0.0063368184491992, 0.0063368184491992],
			"min":	[-0.0063368184491992, -0.0063368184491992, -0.0063368184491992]
		}, {
			"bufferView":	2,
			"byteOffset":	93600,
			"componentType":	5126,
			"count":	2880,
			"type":	"VEC3",
			"name":	"accessorNormals",
			"max":	[0.98425197601318359, 0.98425197601318359, 0.9921259880065918],
			"min":	[-0.98425197601318359, -0.98425197601318359, -0.9921259880065918]
		}, {
			"bufferView":	0,
			"byteOffset":	42720,
			"componentType":	5125,
			"count":	1440,
			"type":	"SCALAR",
			"name":	"accessorIndices_6",
			"max":	[1439],
			"min":	[0]
		}, {
			"bufferView":	1,
			"byteOffset":	128160,
			"componentType":	5126,
			"count":	1440,
			"type":	"VEC3",
			"name":	"accessorPositions",
			"max":	[0.0072546014562249184, 0.0595218613743782, 0.10283622890710831],
			"min":	[-0.0072546014562249184, -0.0595218613743782, 0]
		}, {
			"bufferView":	2,
			"byteOffset":	128160,
			"componentType":	5126,
			"count":	1440,
			"type":	"VEC3",
			"name":	"accessorNormals",
			"max":	[1, 1, 1],
			"min":	[-1, -1, -1]
		}, {
			"bufferView":	0,
			"byteOffset":	48480,
			"componentType":	5125,
			"count":	36,
			"type":	"SCALAR",
			"name":	"accessorIndices_9",
			"max":	[35],
			"min":	[0]
		}, {
			"bufferView":	1,
			"byteOffset":	145440,
			"componentType":	5126,
			"count":	36,
			"type":	"VEC3",
			"name":	"accessorPositions",
			"max":	[0.0063988021574914455, 0.0053348289802670479, 0.100015290081501],
			"min":	[-0.0063988021574914455, -0.0053348289802670479, 0]
		}, {
			"bufferView":	2,
			"byteOffset":	145440,
			"componentType":	5126,
			"count":	36,
			"type":	"VEC3",
			"name":	"accessorNormals",
			"max":	[1, 1, 1],
			"min":	[-1, -1, -1]
		}, {
			"bufferView":	0,
			"byteOffset":	48624,
			"componentType":	5125,
			"count":	36,
			"type":	"SCALAR",
			"name":	"accessorIndices_12",
			"max":	[35],
			"min":	[0]
		}, {
			"bufferView":	1,
			"byteOffset":	145872,
			"componentType":	5126,
			"count":	36,
			"type":	"VEC3",
			"name":	"accessorPositions",
			"max":	[0.046679031103849411, 0.044575896114110947, 0.0078473323956131935],
			"min":	[-0.046679031103849411, -0.044575896114110947, 0]
		}, {
			"bufferView":	2,
			"byteOffset":	145872,
			"componentType":	5126,
			"count":	36,
			"type":	"VEC3",
			"name":	"accessorNormals",
			"max":	[1, 1, 1],
			"min":	[-1, -1, -1]
		}, {
			"bufferView":	0,
			"byteOffset":	48768,
			"componentType":	5125,
			"count":	36,
			"type":	"SCALAR",
			"name":	"accessorIndices_15",
			"max":	[35],
			"min":	[0]
		}, {
			"bufferView":	1,
			"byteOffset":	146304,
			"componentType":	5126,
			"count":	36,
			"type":	"VEC3",
			"name":	"accessorPositions",
			"max":	[0.13725076615810394, 0.0079405885189771652, 0.30843356251716614],
			"min":	[0, 0, 0]
		}, {
			"bufferView":	2,
			"byteOffset":	146304,
			"componentType":	5126,
			"count":	36,
			"type":	"VEC3",
			"name":	"accessorNormals",
			"max":	[0.055118110030889511, 0.9921259880065918, 1],
			"min":	[-0.98425197601318359, -1, -1]
		}, {
			"bufferView":	0,
			"byteOffset":	48912,
			"componentType":	5125,
			"count":	36,
			"type":	"SCALAR",
			"name":	"accessorIndices_18",
			"max":	[35],
			"min":	[0]
		}, {
			"bufferView":	1,
			"byteOffset":	146736,
			"componentType":	5126,
			"count":	36,
			"type":	"VEC3",
			"name":	"accessorPositions",
			"max":	[0.167748898267746, 0.0972677171230316, 0.011863186024129391],
			"min":	[-0.167748898267746, -0.0972677171230316, 0]
		}, {
			"bufferView":	2,
			"byteOffset":	146736,
			"componentType":	5126,
			"count":	36,
			"type":	"VEC3",
			"name":	"accessorNormals",
			"max":	[1, 1, 1],
			"min":	[-1, -1, -1]
		}, {
			"bufferView":	0,
			"byteOffset":	49056,
			"componentType":	5125,
			"count":	36,
			"type":	"SCALAR",
			"name":	"accessorIndices_21",
			"max":	[35],
			"min":	[0]
		}, {
			"bufferView":	1,
			"byteOffset":	147168,
			"componentType":	5126,
			"count":	36,
			"type":	"VEC3",
			"name":	"accessorPositions",
			"max":	[0.0537605807185173, 0.0346393994987011, 0.00760544976219535],
			"min":	[-0.0537605807185173, -0.0346393994987011, 0]
		}, {
			"bufferView":	2,
			"byteOffset":	147168,
			"componentType":	5126,
			"count":	36,
			"type":	"VEC3",
			"name":	"accessorNormals",
			"max":	[1, 1, 1],
			"min":	[-1, -1, -1]
		}, {
			"bufferView":	0,
			"byteOffset":	49200,
			"componentType":	5125,
			"count":	36,
			"type":	"SCALAR",
			"name":	"accessorIndices_24",
			"max":	[35],
			"min":	[0]
		}, {
			"bufferView":	1,
			"byteOffset":	147600,
			"componentType":	5126,
			"count":	36,
			"type":	"VEC3",
			"name":	"accessorPositions",
			"max":	[0.046679031103849411, 0.044575896114110947, 0.0078473323956131935],
			"min":	[-0.046679031103849411, -0.044575896114110947, 0]
		}, {
			"bufferView":	2,
			"byteOffset":	147600,
			"componentType":	5126,
			"count":	36,
			"type":	"VEC3",
			"name":	"accessorNormals",
			"max":	[1, 1, 1],
			"min":	[-1, -1, -1]
		}, {
			"bufferView":	0,
			"byteOffset":	49344,
			"componentType":	5125,
			"count":	36,
			"type":	"SCALAR",
			"name":	"accessorIndices_27",
			"max":	[35],
			"min":	[0]
		}, {
			"bufferView":	1,
			"byteOffset":	148032,
			"componentType":	5126,
			"count":	36,
			"type":	"VEC3",
			"name":	"accessorPositions",
			"max":	[0.167748898267746, 0.0972677171230316, 0.011863186024129391],
			"min":	[-0.167748898267746, -0.0972677171230316, 0]
		}, {
			"bufferView":	2,
			"byteOffset":	148032,
			"componentType":	5126,
			"count":	36,
			"type":	"VEC3",
			"name":	"accessorNormals",
			"max":	[1, 1, 1],
			"min":	[-1, -1, -1]
		}],
	"nodes":	[{
			"children":	[1, 2, 3, 4, 5, 6, 7, 8, 9, 10, 11, 12, 13, 14, 15, 16, 17, 18, 19, 20, 21, 22, 23, 24, 25, 26, 27, 28, 29],
			"matrix":	[1, 0, 0, 0, 0, 0, -1, 0, 0, 1, 0, 0, 0, 0, 0, 1]
		}, {
			"mesh":	4,
			"matrix":	[151.03834533691406, 0, 0, 0, 0, 137.83609008789063, 0, 0, 0, 0, 122.05152893066406, 0, 0.0594019703567028, -0.0311410129070282, 0, 1]
		}, {
			"mesh":	0,
			"matrix":	[39.370079040527344, 0, 0, 0, 0, 47.701557159423828, 0, 0, 0, 0, 53.429256439208984, 0, 2.629218578338623, -0.076399371027946472, 0, 1]
		}, {
			"mesh":	5,
			"matrix":	[-0.23696091771125793, -64.32733154296875, 1.9483294977362675e-09, 0, 0.395749568939209, -0.00293317367322743, 39.368576049804688, 0, -45.3482780456543, 0.33610725402832031, 0.34356540441513062, 0, 7.3797240257263184, 6.05851411819458, 6.9417843818664551, 1]
		}, {
			"mesh":	3,
			"matrix":	[17.607637405395508, 0, 0, 0, 0, 22.650489807128906, 0, 0, 0, 0, 25.9659595489502, 0, -6.590052604675293, 5.90767478942871, 0.67030841112136841, 1]
		}, {
			"mesh":	3,
			"matrix":	[34.4947166442871, 0, 0, 0, 0, 23.357370376586914, 0, 0, 0, 0, 25.9659595489502, 0, -3.9973273277282715, 5.90767478942871, 0.67030841112136841, 1]
		}, {
			"mesh":	3,
			"matrix":	[33.974582672119141, 0, 0, 0, 0, 22.650489807128906, 0, 0, 0, 0, 25.9659595489502, 0, -5.2610831260681152, 5.90767478942871, 0.67030841112136841, 1]
		}, {
			"mesh":	3,
			"matrix":	[33.974582672119141, 0, 0, 0, 0, 22.650489807128906, 0, 0, 0, 0, 25.9659595489502, 0, -2.605360746383667, 5.90767478942871, 0.67030841112136841, 1]
		}, {
			"mesh":	3,
			"matrix":	[-0.213982954621315, 0, 33.974140167236328, 0, 0, 49.550544738769531, 0, 0, -48.479305267333984, 0, -0.20137742161750793, 0, -1.9342442750930786, 5.90767478942871, 3.4714019298553467, 1]
		}, {
			"mesh":	3,
			"matrix":	[17.607637405395508, 0, 0, 0, 0, 32.526790618896484, 0, 0, 0, 0, 25.9659595489502, 0, -6.590052604675293, 4.483220100402832, 0.67030841112136841, 1]
		}, {
			"mesh":	3,
			"matrix":	[17.607637405395508, 0, 0, 0, 0, 32.526790618896484, 0, 0, 0, 0, 25.9659595489502, 0, -6.590052604675293, 4.483220100402832, 0.67030841112136841, 1]
		}, {
			"mesh":	3,
			"matrix":	[17.607637405395508, 0, 0, 0, 0, 32.526790618896484, 0, 0, 0, 0, 25.9659595489502, 0, -6.590052604675293, 3.109663724899292, 0.67030841112136841, 1]
		}, {
			"mesh":	3,
			"matrix":	[17.607637405395508, 0, 0, 0, 0, 32.526790618896484, 0, 0, 0, 0, 25.9659595489502, 0, -6.590052604675293, 1.7935402393341064, 0.67030841112136841, 1]
		}, {
			"mesh":	3,
			"matrix":	[17.607637405395508, 0, 0, 0, 0, 32.526790618896484, 0, 0, 0, 0, 25.9659595489502, 0, -6.590052604675293, 0.39636597037315369, 0.67030841112136841, 1]
		}, {
			"mesh":	3,
			"matrix":	[-0.12163493782281876, -0.054192472249269485, 33.974346160888672, 0, -35.209186553955078, 0.0010853243293240666, -0.2496369332075119, 0, -0.0013288724003359675, -61.334465026855469, 0.042015496641397476, 0, -6.5851526260375977, 6.1959719657897949, 3.4714019298553467, 1]
		}, {
			"mesh":	6,
			"matrix":	[43.756023406982422, 0, 0, 0, 0, 33.3915023803711, 20.856906890869141, 0, 0, -20.856906890869141, 33.3915023803711, 0, 0.051374945789575577, -3.0018067359924316, 8.65834617614746, 1]
		}, {
			"mesh":	9,
			"matrix":	[43.8310317993164, 0, 0, 0, 0, -32.806121826171875, 21.766073226928711, 0, 0, 21.766073226928711, 32.806121826171875, 0, -0.0970451980829239, 3.0356781482696533, 8.65674304962158, 1]
		}, {
			"mesh":	5,
			"matrix":	[-0.0033611324615776539, -64.32733154296875, 1.176766573074417e-09, 0, 0.00561320362612605, -0.002933173906058073, 39.368572235107422, 0, -0.643224000930786, 0.33610740303993225, 0.34356549382209778, 0, 7.4376258850097656, 6.05851411819458, 6.9417843818664551, 1]
		}, {
			"mesh":	7,
			"matrix":	[-0.24793681502342224, -21.66697883605957, -6.81813617120497e-06, 0, 6.3879670051392168e-06, -1.50574794588465e-06, 73.2932662963867, 0, -39.369281768798828, 0.13645412027835846, 1.1948003702855203e-05, 0, -1.7641909122467041, -3.013690710067749, 3.5053203105926514, 1]
		}, {
			"mesh":	1,
			"matrix":	[39.370079040527344, 0, 0, 0, 0, 39.370079040527344, 0, 0, 0, 0, 39.370079040527344, 0, -2.0012948513031, -2.1521329879760742, 3.2542297840118408, 1]
		}, {
			"mesh":	2,
			"matrix":	[33.256668090820313, 0, 0, 0, 0, 41.151409149169922, 0, 0, 0, 0, 31.821401596069336, 0, -1.8470554351806641, 2.11573052406311, 3.2164726257324219, 1]
		}, {
			"mesh":	3,
			"matrix":	[17.607637405395508, 0, 0, 0, 0, 19.380661010742188, 0, 0, 0, 0, 34.192207336425781, 0, -1.8310409784317017, 1.9153484106063843, 3.1705725193023682, 1]
		}, {
			"mesh":	3,
			"matrix":	[17.607637405395508, 0, 0, 0, 0, -8.4715554748981958e-07, 19.380661010742188, 0, 0, -46.5600242614746, -2.0352031242509838e-06, 0, -1.8740860223770142, 4.3148956298828125, 4.9624495506286621, 1]
		}, {
			"mesh":	3,
			"matrix":	[33.974582672119141, 0, 0, 0, 0, 22.650489807128906, 0, 0, 0, 0, 25.9659595489502, 0, -5.2610831260681152, -5.9786782264709473, 0.67030841112136841, 1]
		}, {
			"mesh":	3,
			"matrix":	[33.974582672119141, 0, 0, 0, 0, 22.650489807128906, 0, 0, 0, 0, 25.9659595489502, 0, -2.605360746383667, -5.9786782264709473, 0.67030841112136841, 1]
		}, {
			"mesh":	3,
			"matrix":	[-0.213982954621315, 0, 33.974140167236328, 0, 0, 49.550544738769531, 0, 0, -48.479305267333984, 0, -0.20137742161750793, 0, -1.9342442750930786, -5.9786782264709473, 3.4714019298553467, 1]
		}, {
			"mesh":	3,
			"matrix":	[34.4947166442871, 0, 0, 0, 0, 23.357370376586914, 0, 0, 0, 0, 25.9659595489502, 0, -3.9973273277282715, -5.9786782264709473, 0.67030841112136841, 1]
		}, {
			"mesh":	3,
			"matrix":	[33.974582672119141, 0, 0, 0, 0, 22.650489807128906, 0, 0, 0, 0, 25.9659595489502, 0, -6.53378438949585, -5.9786782264709473, 0.67030841112136841, 1]
		}, {
			"mesh":	8,
			"matrix":	[-0.38426223397254944, 79.245132446289063, 0, 0, -84.482635498046875, -1.0903977155685425, 0, 0, 0, 0, 122.05152893066406, 0, -3.1212804317474365, -2.190354585647583, 0.13205623626708984, 1]
		}, {
			"mesh":	8,
			"matrix":	[-0.38426223397254944, 79.245132446289063, 0, 0, -84.482635498046875, -1.0903977155685425, 0, 0, 0, 0, 122.05152893066406, 0, -3.1212804317474365, 2.3517954349517822, 0.13205623626708984, 1]
		}],
	"bufferViews":	[{
			"buffer":	0,
			"byteOffset":	0,
			"byteLength":	49488,
			"name":	"bufferViewIndex"
		}, {
			"buffer":	0,
			"byteOffset":	49488,
			"byteLength":	148464,
			"byteStride":	12,
			"name":	"bufferViewPosition"
		}, {
			"buffer":	0,
			"byteOffset":	197952,
			"byteLength":	148464,
			"byteStride":	12,
			"name":	"bufferViewNormal"
		}],
	"buffers":	[{
			"byteLength":	346416,
			"uri":	"578221.bin"
		}]
}